# xmcd
#
# Track frame offsets: 
#        153
#        22476
#        37118
#        55071
#        68627
#        95469
#        112645
#        133628
#        152161
#        182521
#        197239
#        208591
#        227973
#        244589
#
# Disc length: 3432 seconds
#
# Revision: 0
# Processed by: cddbd v1.5.2PL0 Copyright (c) Steve Scherf et al.
# Submitted via: ExactAudioCopyFreeDBPlugin 1.0
#
DISCID=c00d660e
DTITLE=Myles Goodwyn - Friends Of The Blues II
DYEAR=2019
DGENRE=blues
TTITLE0=Hip Hip
TTITLE1=Like A Dog Ain't Had It's Day
TTITLE2=All Over Now
TTITLE3=Tou Got It Bad
TTITLE4=Fish Tank Blues
TTITLE5=Speedo (Revisited)
TTITLE6=Daddy Needs New Shoes
TTITLE7=Being Good (Won't Do Us Any Good Tonight)
TTITLE8=I Love My Guitar
TTITLE9=Help Me Baby
TTITLE10=When Your Ship Came In (I Was At The Train Station Drinking)
TTITLE11=Sick And Tired (Of Being Sick and Tired Of You)
TTITLE12=I Saw Someone That Wasn't There (And It Was You)
TTITLE13=Even Singing Cowboys Get The Blues
EXTD=
EXTT0=
EXTT1=
EXTT2=
EXTT3=
EXTT4=
EXTT5=
EXTT6=
EXTT7=
EXTT8=
EXTT9=
EXTT10=
EXTT11=
EXTT12=
EXTT13=
PLAYORDER=
